<svg width="266" height="12" viewBox="0 0 266 12" fill="none" xmlns="http://www.w3.org/2000/svg">
<path d="M8.6582 4.6084H10.4863V5.44629H8.6582V11.2988H7.66797V0.0126953H8.6582V4.6084ZM5.73828 1.23145C5.73828 2.91146 5.31722 4.4349 4.4751 5.80176C3.63298 7.16439 2.32747 8.28158 0.558594 9.15332L0 8.36621C1.4515 7.64258 2.57503 6.74967 3.37061 5.6875C4.16618 4.62109 4.62109 3.41504 4.73535 2.06934H0.520508V1.23145H5.73828ZM20.5283 1.29492H16.9482C16.9525 1.7054 17.1387 2.09049 17.5068 2.4502C17.875 2.80566 18.3595 3.104 18.9604 3.34521C19.5614 3.58643 20.1982 3.74512 20.8711 3.82129L20.5029 4.6084C19.8766 4.52799 19.2821 4.38411 18.7192 4.17676C18.1564 3.9694 17.6634 3.70492 17.2402 3.3833C16.8171 3.06169 16.5039 2.69775 16.3008 2.2915C16.1019 2.69775 15.7909 3.06169 15.3677 3.3833C14.9487 3.70492 14.4578 3.9694 13.895 4.17676C13.3322 4.38411 12.7376 4.52799 12.1113 4.6084L11.7432 3.82129C12.4118 3.74512 13.0444 3.58643 13.6411 3.34521C14.2378 3.104 14.7202 2.80566 15.0884 2.4502C15.4565 2.09049 15.6449 1.7054 15.6533 1.29492H12.0986V0.482422H20.5283V1.29492ZM21.4805 6.5127H11.1592V5.6875H15.8057V3.97363H16.7832V5.6875H21.4805V6.5127ZM20.1729 11.2988H19.1699V8.44238H12.3018V7.62988H20.1729V11.2988ZM32.0684 11.2988H31.1035V0.0126953H32.0684V11.2988ZM29.7959 10.7275H28.8438V5.24316H27.3901C27.3563 5.97103 27.2357 6.60368 27.0283 7.14111C26.821 7.67432 26.5396 8.08691 26.1841 8.37891C25.8286 8.66667 25.4202 8.81055 24.959 8.81055C24.4723 8.81055 24.0449 8.65186 23.6768 8.33447C23.3128 8.01286 23.0314 7.55583 22.8325 6.96338C22.6336 6.37093 22.5342 5.67904 22.5342 4.8877C22.5342 4.09635 22.6336 3.40446 22.8325 2.81201C23.0314 2.21956 23.3128 1.76465 23.6768 1.44727C24.0449 1.12565 24.4723 0.964844 24.959 0.964844C25.4118 0.964844 25.8138 1.10449 26.165 1.38379C26.5163 1.66309 26.7956 2.06299 27.0029 2.5835C27.2145 3.104 27.3415 3.71549 27.3838 4.41797H28.8438V0.253906H29.7959V10.7275ZM24.959 1.9043C24.6543 1.9043 24.3898 2.0249 24.1655 2.26611C23.9412 2.50732 23.7677 2.85433 23.645 3.30713C23.5265 3.7557 23.4694 4.28255 23.4736 4.8877C23.4694 5.49284 23.5265 6.01969 23.645 6.46826C23.7677 6.91683 23.9412 7.26172 24.1655 7.50293C24.394 7.74414 24.6585 7.86263 24.959 7.8584C25.2594 7.86263 25.5218 7.74414 25.7461 7.50293C25.9746 7.26172 26.1502 6.91683 26.2729 6.46826C26.3957 6.01969 26.457 5.49284 26.457 4.8877C26.457 4.27832 26.3957 3.74935 26.2729 3.30078C26.1502 2.85221 25.9767 2.50732 25.7524 2.26611C25.5282 2.0249 25.2637 1.9043 24.959 1.9043ZM43.291 11.2988H42.3389V0.0126953H43.291V11.2988ZM40.917 10.7275H39.9648V5.45898H37.5718C36.8524 6.83854 35.7373 7.97266 34.2266 8.86133L33.6426 8.1377C34.8486 7.42676 35.7712 6.57617 36.4102 5.58594C37.0534 4.59147 37.4215 3.49121 37.5146 2.28516H34.125V1.45996H38.5049C38.4964 2.611 38.3081 3.67318 37.9399 4.64648H39.9648V0.317383H40.917V10.7275ZM53.8027 8.42969H48.5977V1.15527H53.8027V8.42969ZM49.5625 7.61719H52.8125V1.95508H49.5625V7.61719ZM56.8623 4.51953H58.7539V5.38281H56.8623V11.2988H55.8721V0.0126953H56.8623V4.51953ZM64.5049 0.266602C65.3216 0.266602 66.0283 0.351237 66.625 0.520508C67.2259 0.689779 67.6872 0.935221 68.0088 1.25684C68.3304 1.57845 68.4912 1.96354 68.4912 2.41211C68.4912 2.85221 68.3304 3.23096 68.0088 3.54834C67.6872 3.86149 67.2259 4.1027 66.625 4.27197C66.0283 4.43701 65.3216 4.51953 64.5049 4.51953C63.6882 4.51953 62.9793 4.43701 62.3784 4.27197C61.7775 4.1027 61.3141 3.86149 60.9883 3.54834C60.6667 3.23096 60.5059 2.85221 60.5059 2.41211C60.5059 1.96354 60.6667 1.57845 60.9883 1.25684C61.3141 0.935221 61.7775 0.689779 62.3784 0.520508C62.9793 0.351237 63.6882 0.266602 64.5049 0.266602ZM64.5049 1.06641C63.8997 1.06641 63.3729 1.12142 62.9243 1.23145C62.4757 1.33724 62.1309 1.4917 61.8896 1.69482C61.6484 1.89795 61.5299 2.13704 61.5342 2.41211C61.5299 2.68294 61.6463 2.91781 61.8833 3.1167C62.1245 3.31136 62.4694 3.46159 62.918 3.56738C63.3665 3.67318 63.8955 3.72819 64.5049 3.73242C65.1058 3.72819 65.6284 3.67318 66.0728 3.56738C66.5213 3.46159 66.8662 3.31136 67.1074 3.1167C67.3529 2.91781 67.4756 2.68294 67.4756 2.41211C67.4756 2.13704 67.3529 1.89795 67.1074 1.69482C66.8662 1.4917 66.5213 1.33724 66.0728 1.23145C65.6242 1.12142 65.1016 1.06641 64.5049 1.06641ZM68.3896 11.1465H60.6201V7.43945H68.3896V11.1465ZM61.6104 10.334H67.4121V8.23926H61.6104V10.334ZM69.6465 6.32227H59.3633V5.49707H69.6465V6.32227ZM75.7402 0.21582C76.5781 0.21582 77.2954 0.291992 77.8921 0.444336C78.4888 0.592448 78.9437 0.8125 79.2568 1.10449C79.57 1.39225 79.7266 1.74349 79.7266 2.1582C79.7266 2.79297 79.3796 3.27962 78.6855 3.61816C77.9915 3.95671 77.0098 4.13021 75.7402 4.13867C74.9023 4.13444 74.1829 4.05615 73.582 3.90381C72.9854 3.75146 72.5283 3.5293 72.2109 3.2373C71.8978 2.94108 71.7412 2.58138 71.7412 2.1582C71.7412 1.74349 71.8978 1.39225 72.2109 1.10449C72.5283 0.8125 72.9854 0.592448 73.582 0.444336C74.1829 0.291992 74.9023 0.21582 75.7402 0.21582ZM75.7402 0.964844C75.1182 0.964844 74.585 1.01351 74.1406 1.11084C73.6963 1.20394 73.3577 1.34147 73.125 1.52344C72.8923 1.70117 72.778 1.91276 72.7822 2.1582C72.778 2.54753 73.034 2.84798 73.5503 3.05957C74.0666 3.27116 74.7965 3.37695 75.7402 3.37695C76.6797 3.37695 77.4097 3.27116 77.9302 3.05957C78.4507 2.84798 78.7109 2.54753 78.7109 2.1582C78.7109 1.91276 78.5924 1.70117 78.3555 1.52344C78.1185 1.3457 77.7778 1.20817 77.3335 1.11084C76.8892 1.01351 76.3581 0.964844 75.7402 0.964844ZM80.8818 5.71289H70.5986V4.90039H80.8818V5.71289ZM79.5615 9.2168H72.8584V10.3848H79.9043V11.1719H71.8682V8.48047H78.584V7.45215H71.8428V6.69043H79.5615V9.2168ZM94.4531 8.30273H93.4502V3.97363H91.127V3.14844H93.4502V0.0253906H94.4531V8.30273ZM94.7705 11.0576H87.2041V7.55371H88.207V10.2197H94.7705V11.0576ZM89.0195 2.34863C89.0195 2.83105 89.1359 3.3029 89.3687 3.76416C89.6056 4.22119 89.9336 4.62744 90.3525 4.98291C90.7757 5.33838 91.2581 5.6071 91.7998 5.78906L91.2793 6.58887C90.6488 6.36035 90.0944 6.02181 89.6162 5.57324C89.1423 5.12044 88.7826 4.59993 88.5371 4.01172C88.2917 4.66341 87.9193 5.23893 87.4199 5.73828C86.9206 6.2334 86.3366 6.60579 85.668 6.85547L85.1475 6.04297C85.6976 5.84831 86.1906 5.56478 86.6265 5.19238C87.0623 4.81576 87.403 4.382 87.6484 3.89111C87.8939 3.396 88.0166 2.88184 88.0166 2.34863V1.76465H85.4648V0.939453H91.5459V1.76465H89.0195V2.34863ZM105.066 4.67188H106.958V5.49707H105.066V11.2988H104.076V0.0126953H105.066V4.67188ZM102.984 2.65332H96.2686V1.82812H99.1758V0.152344H100.166V1.82812H102.984V2.65332ZM99.6836 3.59277C100.213 3.59277 100.687 3.7028 101.105 3.92285C101.524 4.1429 101.852 4.44971 102.089 4.84326C102.326 5.23682 102.447 5.68327 102.451 6.18262C102.447 6.68197 102.326 7.12842 102.089 7.52197C101.852 7.91553 101.524 8.22233 101.105 8.44238C100.687 8.66243 100.213 8.77246 99.6836 8.77246C99.1504 8.77246 98.6722 8.66243 98.249 8.44238C97.8301 8.22233 97.5021 7.91553 97.2651 7.52197C97.0282 7.12842 96.9118 6.68197 96.916 6.18262C96.9118 5.68327 97.0282 5.23682 97.2651 4.84326C97.5021 4.44971 97.8301 4.1429 98.249 3.92285C98.6722 3.7028 99.1504 3.59277 99.6836 3.59277ZM99.6836 4.43066C99.3366 4.43066 99.0234 4.50684 98.7441 4.65918C98.4691 4.80729 98.2533 5.01465 98.0967 5.28125C97.9401 5.54785 97.8639 5.84831 97.8682 6.18262C97.8639 6.52116 97.9401 6.82373 98.0967 7.09033C98.2533 7.3527 98.4691 7.55794 98.7441 7.70605C99.0234 7.85417 99.3366 7.92611 99.6836 7.92188C100.026 7.92611 100.335 7.85417 100.61 7.70605C100.885 7.55794 101.101 7.3527 101.258 7.09033C101.414 6.82373 101.495 6.52116 101.499 6.18262C101.495 5.84831 101.414 5.54785 101.258 5.28125C101.101 5.01465 100.885 4.80729 100.61 4.65918C100.335 4.50684 100.026 4.43066 99.6836 4.43066ZM116.695 4.24023H108.964V0.431641H109.954V3.44043H116.695V4.24023ZM117.889 6.58887H107.555V5.77637H117.889V6.58887ZM116.759 11.0195H108.9V7.74414H109.891V10.1943H116.759V11.0195ZM130.99 4.45605H132.641V5.30664H130.99V11.2988H130V0H130.99V4.45605ZM125.277 2.03125H123.398V7.49658C124.131 7.47119 124.795 7.3929 125.392 7.26172L125.493 8.09961C125.019 8.20117 124.581 8.26676 124.179 8.29639C123.777 8.32601 123.352 8.34082 122.903 8.34082H122.408V1.20605H125.277V2.03125ZM128.934 2.03125H126.915V7.50293C127.389 7.49447 127.81 7.47119 128.178 7.43311C128.546 7.39502 128.921 7.32943 129.302 7.23633L129.403 8.07422C128.946 8.18424 128.506 8.25618 128.083 8.29004C127.66 8.32389 127.122 8.34082 126.471 8.34082H125.925V1.20605H128.934V2.03125ZM143.584 6.27148H133.301V5.44629H143.584V6.27148ZM142.695 4.39258H138.772V0.571289H142.594V1.38379H139.775V3.58008H142.695V4.39258ZM138.138 1.38379H135.281V3.58008C135.823 3.57161 136.333 3.54411 136.811 3.49756C137.293 3.44678 137.786 3.36426 138.29 3.25L138.404 4.0752C137.816 4.20215 137.253 4.28678 136.716 4.3291C136.178 4.37142 135.577 4.39258 134.913 4.39258H134.266V0.571289H138.138V1.38379ZM138.963 7.52832C138.963 8.01921 139.136 8.46989 139.483 8.88037C139.83 9.29085 140.294 9.63363 140.874 9.90869C141.458 10.1795 142.099 10.3636 142.797 10.4609L142.416 11.248C141.523 11.0999 140.721 10.8228 140.01 10.4165C139.304 10.0145 138.785 9.51514 138.455 8.91846C138.125 9.51514 137.604 10.0145 136.894 10.4165C136.187 10.8228 135.387 11.0999 134.494 11.248L134.113 10.4609C134.807 10.3636 135.446 10.1795 136.03 9.90869C136.614 9.63363 137.08 9.29085 137.427 8.88037C137.774 8.46989 137.947 8.01921 137.947 7.52832V7.16016H138.963V7.52832ZM153.359 3.74512H155.061V4.58301H153.359V8.48047H152.369V0.0253906H153.359V3.74512ZM151.29 2.22168H144.562V1.40918H147.431V0.0253906H148.421V1.40918H151.29V2.22168ZM147.926 2.84375C148.459 2.84375 148.929 2.9305 149.335 3.104C149.745 3.27751 150.065 3.52295 150.293 3.84033C150.522 4.15771 150.638 4.52799 150.643 4.95117C150.638 5.37012 150.522 5.73617 150.293 6.04932C150.065 6.36247 149.745 6.60579 149.335 6.7793C148.929 6.94857 148.459 7.0332 147.926 7.0332C147.388 7.0332 146.912 6.94857 146.498 6.7793C146.087 6.60579 145.768 6.36247 145.539 6.04932C145.315 5.73617 145.205 5.37012 145.209 4.95117C145.205 4.52799 145.315 4.15771 145.539 3.84033C145.768 3.52295 146.087 3.27751 146.498 3.104C146.912 2.9305 147.388 2.84375 147.926 2.84375ZM147.926 3.63086C147.575 3.63086 147.264 3.68587 146.993 3.7959C146.726 3.90169 146.519 4.05615 146.371 4.25928C146.227 4.45817 146.157 4.6888 146.161 4.95117C146.157 5.21354 146.227 5.44417 146.371 5.64307C146.519 5.83773 146.726 5.98796 146.993 6.09375C147.264 6.19954 147.575 6.25033 147.926 6.24609C148.273 6.25033 148.58 6.19954 148.846 6.09375C149.117 5.98796 149.326 5.83773 149.475 5.64307C149.623 5.44417 149.699 5.21354 149.703 4.95117C149.699 4.6888 149.623 4.45817 149.475 4.25928C149.326 4.05615 149.117 3.90169 148.846 3.7959C148.58 3.68587 148.273 3.63086 147.926 3.63086ZM153.88 11.0576H146.301V7.80762H147.278V10.2197H153.88V11.0576ZM168.34 11.3242H167.337V0.0126953H168.34V11.3242ZM162.335 0.888672C162.894 0.892904 163.391 1.05794 163.827 1.38379C164.263 1.7054 164.603 2.16243 164.849 2.75488C165.094 3.34733 165.217 4.03711 165.217 4.82422C165.217 5.61133 165.094 6.30111 164.849 6.89355C164.603 7.486 164.263 7.94303 163.827 8.26465C163.391 8.58626 162.894 8.74707 162.335 8.74707C161.776 8.74707 161.277 8.58626 160.837 8.26465C160.401 7.94303 160.06 7.486 159.815 6.89355C159.574 6.30111 159.453 5.61133 159.453 4.82422C159.453 4.03711 159.574 3.34733 159.815 2.75488C160.06 2.16243 160.401 1.7054 160.837 1.38379C161.273 1.05794 161.772 0.892904 162.335 0.888672ZM162.335 1.77734C161.958 1.78158 161.624 1.91064 161.332 2.16455C161.044 2.41423 160.82 2.76969 160.659 3.23096C160.498 3.68799 160.418 4.21908 160.418 4.82422C160.418 5.42936 160.498 5.96257 160.659 6.42383C160.82 6.88086 161.046 7.23421 161.338 7.48389C161.63 7.73356 161.963 7.8584 162.335 7.8584C162.707 7.8584 163.04 7.73356 163.332 7.48389C163.624 7.23421 163.85 6.88086 164.011 6.42383C164.172 5.96257 164.252 5.42936 164.252 4.82422C164.252 4.21908 164.172 3.68799 164.011 3.23096C163.85 2.76969 163.624 2.41423 163.332 2.16455C163.044 1.91064 162.712 1.78158 162.335 1.77734ZM173.291 0.888672C173.845 0.892904 174.336 1.05794 174.764 1.38379C175.195 1.7054 175.532 2.16243 175.773 2.75488C176.018 3.34733 176.143 4.03711 176.147 4.82422C176.143 5.61133 176.018 6.30111 175.773 6.89355C175.532 7.486 175.195 7.94303 174.764 8.26465C174.332 8.58626 173.841 8.74707 173.291 8.74707C172.737 8.74707 172.244 8.58626 171.812 8.26465C171.38 7.94303 171.044 7.486 170.803 6.89355C170.566 6.30111 170.447 5.61133 170.447 4.82422C170.447 4.03711 170.566 3.34733 170.803 2.75488C171.044 2.16243 171.38 1.7054 171.812 1.38379C172.244 1.05794 172.737 0.892904 173.291 0.888672ZM173.291 1.77734C172.919 1.78158 172.589 1.91064 172.301 2.16455C172.013 2.41423 171.789 2.76969 171.628 3.23096C171.467 3.68799 171.387 4.21908 171.387 4.82422C171.387 5.42936 171.467 5.96257 171.628 6.42383C171.789 6.88086 172.013 7.23421 172.301 7.48389C172.593 7.73356 172.923 7.8584 173.291 7.8584C173.663 7.8584 173.991 7.73356 174.275 7.48389C174.563 7.23421 174.785 6.88086 174.941 6.42383C175.102 5.96257 175.183 5.42936 175.183 4.82422C175.183 4.21908 175.102 3.68799 174.941 3.23096C174.785 2.76969 174.563 2.41423 174.275 2.16455C173.991 1.91064 173.663 1.78158 173.291 1.77734ZM180.832 3.70703H179.004V6.2207H180.832V7.05859H179.004V11.2988H178.014V0.0126953H179.004V2.85645H180.832V3.70703ZM190.836 11.2988H189.833V0.0126953H190.836V11.2988ZM187.497 1.24414C187.489 2.94954 187.057 4.48145 186.202 5.83984C185.347 7.19401 184.01 8.30697 182.19 9.17871L181.645 8.36621C183.151 7.65104 184.304 6.76237 185.104 5.7002C185.908 4.63802 186.367 3.4235 186.481 2.05664H182.165V1.24414H187.497ZM203.062 6.04297H192.728V5.25586H203.062V6.04297ZM201.767 9.34375H194.987V10.4229H202.135V11.1465H193.984V8.6582H200.776V7.69336H193.972V6.94434H201.767V9.34375ZM201.729 2.69141H195.063V3.68164H201.932V4.40527H194.073V2.00586H200.726V1.0791H194.035V0.355469H201.729V2.69141ZM211.161 2.09473C211.161 2.58138 211.278 3.05322 211.51 3.51025C211.743 3.96305 212.069 4.36719 212.488 4.72266C212.911 5.07389 213.396 5.34473 213.941 5.53516L213.421 6.32227C212.79 6.09375 212.236 5.75521 211.758 5.30664C211.284 4.85807 210.924 4.3418 210.679 3.75781C210.433 4.40951 210.061 4.98291 209.562 5.47803C209.062 5.97314 208.478 6.34342 207.81 6.58887L207.289 5.80176C207.839 5.60286 208.332 5.3151 208.768 4.93848C209.204 4.55762 209.545 4.12174 209.79 3.63086C210.035 3.13574 210.158 2.62793 210.158 2.10742V1.6123H207.606V0.799805H213.688V1.6123H211.161V2.09473ZM216.595 11.2988H215.592V8.20117H209.003V7.37598H216.595V11.2988ZM216.595 6.7793H215.592V3.80859H213.332V2.9707H215.592V0.0126953H216.595V6.7793ZM221.508 0.888672C222.016 0.892904 222.471 1.03467 222.873 1.31396C223.279 1.59326 223.607 1.99105 223.856 2.50732C224.106 3.0236 224.256 3.63086 224.307 4.3291H226.84V0.0126953H227.83V11.3242H226.84V5.1543H224.32C224.282 5.88216 224.14 6.51693 223.895 7.05859C223.649 7.60026 223.319 8.01709 222.904 8.30908C222.494 8.60107 222.028 8.74707 221.508 8.74707C220.958 8.74707 220.467 8.58626 220.035 8.26465C219.608 7.94303 219.273 7.486 219.032 6.89355C218.795 6.30111 218.677 5.61133 218.677 4.82422C218.677 4.03711 218.795 3.34733 219.032 2.75488C219.273 2.16243 219.608 1.7054 220.035 1.38379C220.463 1.05794 220.953 0.892904 221.508 0.888672ZM221.508 1.77734C221.14 1.78158 220.812 1.91064 220.524 2.16455C220.24 2.41423 220.02 2.76969 219.864 3.23096C219.707 3.68799 219.629 4.21908 219.629 4.82422C219.629 5.42936 219.707 5.96257 219.864 6.42383C220.02 6.88086 220.24 7.23421 220.524 7.48389C220.812 7.73356 221.14 7.8584 221.508 7.8584C221.872 7.8584 222.195 7.73356 222.479 7.48389C222.767 7.23421 222.989 6.88086 223.146 6.42383C223.306 5.96257 223.387 5.42936 223.387 4.82422C223.387 4.21908 223.306 3.68799 223.146 3.23096C222.989 2.76969 222.769 2.41423 222.485 2.16455C222.202 1.91064 221.876 1.78158 221.508 1.77734ZM235.409 1.6123C235.405 2.09473 235.593 2.55599 235.974 2.99609C236.355 3.43197 236.852 3.80013 237.466 4.10059C238.079 4.40104 238.718 4.59993 239.383 4.69727L239.015 5.48438C238.418 5.38281 237.842 5.21354 237.288 4.97656C236.738 4.73958 236.249 4.44336 235.822 4.08789C235.394 3.72819 235.071 3.32829 234.851 2.88818C234.631 3.32829 234.307 3.72607 233.879 4.08154C233.452 4.43701 232.963 4.73535 232.413 4.97656C231.867 5.21354 231.3 5.38281 230.712 5.48438L230.318 4.69727C230.979 4.59993 231.615 4.40104 232.229 4.10059C232.843 3.80013 233.34 3.43197 233.721 2.99609C234.102 2.55599 234.292 2.09473 234.292 1.6123V1.53613H230.674V0.723633H239.015V1.53613H235.409V1.6123ZM239.992 7.27441H235.32V11.2988H234.343V7.27441H229.709V6.44922H239.992V7.27441ZM244.296 3.22461C244.296 3.82552 244.391 4.42643 244.582 5.02734C244.772 5.62826 245.045 6.17627 245.4 6.67139C245.76 7.1665 246.183 7.55794 246.67 7.8457L246.099 8.62012C245.57 8.2985 245.111 7.85628 244.721 7.29346C244.336 6.7264 244.04 6.08952 243.833 5.38281C243.621 6.14453 243.31 6.83008 242.899 7.43945C242.489 8.04883 242.007 8.52279 241.452 8.86133L240.817 8.1123C241.325 7.81608 241.77 7.41195 242.15 6.8999C242.531 6.38363 242.823 5.81022 243.026 5.17969C243.229 4.54492 243.331 3.90592 243.331 3.2627V1.0791H244.296V3.22461ZM250.618 11.2988H249.653V0.0126953H250.618V11.2988ZM248.282 10.7275H247.343V4.91309H245.426V4.0625H247.343V0.253906H248.282V10.7275ZM262.514 9.85156H252.18V9.01367H254.744V5.9668C254.253 5.71289 253.872 5.38704 253.602 4.98926C253.331 4.58724 253.195 4.13444 253.195 3.63086C253.195 3.05534 253.371 2.54964 253.722 2.11377C254.073 1.67367 254.56 1.33301 255.182 1.0918C255.808 0.850586 256.521 0.727865 257.321 0.723633C258.121 0.727865 258.832 0.850586 259.454 1.0918C260.08 1.33301 260.569 1.67367 260.92 2.11377C261.272 2.54964 261.447 3.05534 261.447 3.63086C261.447 4.12598 261.316 4.57243 261.054 4.97021C260.791 5.36377 260.423 5.6875 259.949 5.94141V9.01367H262.514V9.85156ZM257.321 1.54883C256.708 1.5446 256.162 1.62923 255.684 1.80273C255.205 1.97624 254.831 2.22168 254.56 2.53906C254.293 2.85221 254.16 3.21615 254.16 3.63086C254.16 4.04557 254.293 4.41374 254.56 4.73535C254.831 5.05273 255.205 5.30029 255.684 5.47803C256.162 5.65153 256.708 5.73828 257.321 5.73828C257.931 5.73828 258.474 5.64941 258.953 5.47168C259.431 5.29395 259.805 5.04639 260.076 4.729C260.347 4.41162 260.482 4.04557 260.482 3.63086C260.482 3.21615 260.347 2.85221 260.076 2.53906C259.805 2.22168 259.431 1.97624 258.953 1.80273C258.474 1.62923 257.931 1.5446 257.321 1.54883ZM258.946 9.01367V6.32861C258.443 6.4598 257.901 6.52539 257.321 6.52539C256.737 6.52539 256.204 6.46191 255.722 6.33496V9.01367H258.946ZM264.608 10.3467C264.46 10.3467 264.323 10.3107 264.196 10.2388C264.073 10.1626 263.974 10.061 263.897 9.93408C263.826 9.80713 263.792 9.6696 263.796 9.52148C263.792 9.3776 263.826 9.2443 263.897 9.12158C263.974 8.99463 264.073 8.89518 264.196 8.82324C264.323 8.74707 264.46 8.70898 264.608 8.70898C264.752 8.70898 264.886 8.74707 265.008 8.82324C265.135 8.89518 265.235 8.99463 265.307 9.12158C265.383 9.2443 265.421 9.3776 265.421 9.52148C265.421 9.6696 265.383 9.80713 265.307 9.93408C265.235 10.061 265.135 10.1626 265.008 10.2388C264.886 10.3107 264.752 10.3467 264.608 10.3467Z" fill="#386622" fill-opacity="0.5"/>
</svg>
