<svg width="73" height="25" viewBox="0 0 73 25" fill="none" xmlns="http://www.w3.org/2000/svg">
<g filter="url(#filter0_di_210_867)">
<path d="M18.3711 9.28906C18.3711 9.73438 18.4707 10.1641 18.6699 10.5781C18.873 10.9922 19.168 11.3613 19.5547 11.6855C19.9453 12.0098 20.4141 12.2578 20.9609 12.4297L20.293 13.4375C19.7031 13.25 19.1914 12.9668 18.7578 12.5879C18.3242 12.209 17.9844 11.7617 17.7383 11.2461C17.4922 11.8047 17.1445 12.291 16.6953 12.7051C16.25 13.1191 15.7188 13.4297 15.1016 13.6367L14.4336 12.6289C14.9844 12.4414 15.4551 12.1758 15.8457 11.832C16.2402 11.4844 16.5391 11.0918 16.7422 10.6543C16.9492 10.2129 17.0547 9.75781 17.0586 9.28906V9.16016H14.7734V8.11719H20.5977V9.16016H18.3711V9.28906ZM23.1758 13.8359H21.8633V7.44922H23.1758V13.8359ZM23.1758 18.043H21.8633V15.3828H15.9453V14.3281H23.1758V18.043ZM33.5938 13.2266H32.293V10.9648H30.4648V9.88672H32.293V7.44922H33.5938V13.2266ZM27.9102 14.7734H32.293V13.6719H33.5938V17.9141H26.6094V13.6719H27.9102V14.7734ZM32.293 16.8594V15.793H27.9102V16.8594H32.293ZM30.8047 9.05469H28.6133C28.6172 9.48828 28.7148 9.91016 28.9062 10.3203C29.1016 10.7305 29.3848 11.0996 29.7559 11.4277C30.1309 11.7559 30.582 12.0078 31.1094 12.1836L30.4531 13.1914C29.875 12.9922 29.375 12.7031 28.9531 12.3242C28.5352 11.9414 28.207 11.4961 27.9688 10.9883C27.7266 11.5586 27.3848 12.0547 26.9434 12.4766C26.5059 12.8945 25.9805 13.207 25.3672 13.4141L24.6992 12.3828C25.2422 12.1992 25.707 11.9355 26.0938 11.5918C26.4844 11.248 26.7793 10.8574 26.9785 10.4199C27.1816 9.97852 27.2852 9.52344 27.2891 9.05469H25.0859V7.98828H30.8047V9.05469ZM47.5977 14.8789H43.4023V18.0547H42.1133V14.8789H37.9414V13.8125H47.5977V14.8789ZM46.6953 9.73438H43.4258C43.4688 10.0898 43.6445 10.4355 43.9531 10.7715C44.2617 11.1074 44.6836 11.3984 45.2188 11.6445C45.7539 11.8906 46.3633 12.0547 47.0469 12.1367L46.5664 13.168C45.707 13.0586 44.9453 12.8262 44.2812 12.4707C43.6211 12.1113 43.1152 11.6719 42.7637 11.1523C42.4121 11.6758 41.9043 12.1152 41.2402 12.4707C40.5762 12.8262 39.8086 13.0586 38.9375 13.168L38.4688 12.1367C39.1523 12.0547 39.7617 11.8926 40.2969 11.6504C40.832 11.4043 41.2559 11.1133 41.5684 10.7773C41.8809 10.4414 42.0586 10.0938 42.1016 9.73438H38.832V8.70312H42.1133V7.46094H43.4023V8.70312H46.6953V9.73438ZM56.6094 11.5859H58.1797V12.6758H56.6094V18.0195H55.3086V7.44922H56.6094V11.5859ZM53.8086 8.55078C53.8086 12.0273 52.2031 14.5547 48.9922 16.1328L48.2539 15.125C49.543 14.4844 50.5371 13.709 51.2363 12.7988C51.9395 11.8887 52.3574 10.832 52.4902 9.62891H48.8281V8.55078H53.8086Z" fill="black"/>
</g>
<defs>
<filter id="filter0_di_210_867" x="-2" y="-2" width="77" height="29" filterUnits="userSpaceOnUse" color-interpolation-filters="sRGB">
<feFlood flood-opacity="0" result="BackgroundImageFix"/>
<feColorMatrix in="SourceAlpha" type="matrix" values="0 0 0 0 0 0 0 0 0 0 0 0 0 0 0 0 0 0 127 0" result="hardAlpha"/>
<feOffset/>
<feGaussianBlur stdDeviation="1"/>
<feComposite in2="hardAlpha" operator="out"/>
<feColorMatrix type="matrix" values="0 0 0 0 0 0 0 0 0 0 0 0 0 0 0 0 0 0 0.25 0"/>
<feBlend mode="normal" in2="BackgroundImageFix" result="effect1_dropShadow_210_867"/>
<feBlend mode="normal" in="SourceGraphic" in2="effect1_dropShadow_210_867" result="shape"/>
<feColorMatrix in="SourceAlpha" type="matrix" values="0 0 0 0 0 0 0 0 0 0 0 0 0 0 0 0 0 0 127 0" result="hardAlpha"/>
<feOffset dx="1" dy="1"/>
<feGaussianBlur stdDeviation="1.4"/>
<feComposite in2="hardAlpha" operator="arithmetic" k2="-1" k3="1"/>
<feColorMatrix type="matrix" values="0 0 0 0 0.219608 0 0 0 0 0.4 0 0 0 0 0.133333 0 0 0 0.5 0"/>
<feBlend mode="normal" in2="shape" result="effect2_innerShadow_210_867"/>
</filter>
</defs>
</svg>
