<svg width="104" height="104" viewBox="0 0 104 104" fill="none" xmlns="http://www.w3.org/2000/svg">
<g filter="url(#filter0_d_106_105)">
<g clip-path="url(#clip0_106_105)">
<rect x="2" y="2" width="98" height="98" rx="49" fill="#FFDE68"/>
<ellipse cx="36.9998" cy="61.908" rx="14.1246" ry="5.50173" fill="#386622"/>
<path d="M76.7293 63.1687V65.2937C77.0788 65.2935 77.4229 65.207 77.731 65.0419L76.7293 63.1687ZM74.1716 41.2626L72.232 40.3966C72.1041 40.6836 72.0413 40.9954 72.0483 41.3095C72.0553 41.6236 72.1319 41.9323 72.2725 42.2133C72.4131 42.4943 72.6143 42.7406 72.8615 42.9345C73.1087 43.1283 73.3958 43.265 73.7021 43.3345L74.1716 41.2626ZM61.9372 24.1346L60.02 25.0505C60.219 25.4673 60.5483 25.8078 60.958 26.0206C61.3678 26.2334 61.8357 26.3069 62.2909 26.2299L61.9372 24.1346ZM40.841 24.1346L40.4862 26.2299C40.9414 26.3069 41.4094 26.2334 41.8191 26.0206C42.2289 25.8078 42.5582 25.4673 42.7572 25.0505L40.841 24.1346ZM28.6056 41.2615L29.0751 43.3345C29.3815 43.2651 29.6687 43.1286 29.916 42.9347C30.1633 42.7409 30.3646 42.4946 30.5053 42.2136C30.646 41.9326 30.7227 41.6239 30.7297 41.3097C30.7368 40.9955 30.6741 40.6837 30.5462 40.3966L28.6056 41.2615ZM26.0489 63.1687L25.0461 65.043C25.3542 65.2077 25.6994 65.2937 26.0489 65.2937V63.1687ZM76.1026 61.0936L75.7266 61.2955L77.731 65.0419L78.107 64.84L76.1026 61.0936ZM80.0752 48.2508C81.2357 50.4837 81.4694 53.0842 80.7257 55.4883C79.9821 57.8925 78.321 59.9065 76.1026 61.0936L78.107 64.84C84.7755 61.271 87.3332 53.0024 83.845 46.2915L80.0752 48.2508ZM73.7021 43.3345C75.0584 43.6399 76.3315 44.2381 77.4324 45.0874C78.5333 45.9366 79.4353 47.0163 80.0752 48.2508L83.846 46.2904C82.9213 44.5079 81.6185 42.9489 80.0287 41.7224C78.4389 40.4959 76.6006 39.6315 74.6421 39.1896L73.7021 43.3345ZM72.608 39.5562L72.2331 40.3955L76.1133 42.1275L76.4882 41.2881L72.608 39.5562ZM67.8281 26.9546C70.1267 27.9983 71.9193 29.909 72.8147 32.2698C73.7102 34.6306 73.6359 37.2499 72.608 39.5562L76.4882 41.2881C79.5792 34.354 76.4957 26.2236 69.585 23.0849L67.8281 26.9546ZM62.2909 26.2299C64.1676 25.9115 66.0966 26.164 67.8281 26.9546L69.585 23.0849C67.082 21.9438 64.2945 21.5796 61.5824 22.0393L62.2909 26.2299ZM51.3886 19.6051C53.1946 19.6045 54.9638 20.1157 56.4914 21.0794C58.019 22.0431 59.2424 23.42 60.02 25.0505L63.8545 23.2187C61.6324 18.5702 56.8854 15.355 51.3875 15.355L51.3886 19.6051ZM42.7572 25.0505C43.5348 23.42 44.7582 22.0431 46.2858 21.0794C47.8133 20.1157 49.5826 19.6045 51.3886 19.6051L51.3875 15.355C45.8896 15.355 41.1437 18.5702 38.9237 23.2177L42.7572 25.0505ZM34.95 26.9546C36.6813 26.1642 38.6099 25.9117 40.4862 26.2299L41.1947 22.0393C38.4827 21.5796 35.6951 21.9438 33.1921 23.0849L34.95 26.9546ZM30.1712 39.5562C29.1434 37.2499 29.068 34.6306 29.9635 32.2698C30.8589 29.909 32.6515 27.9983 34.95 26.9546L33.1921 23.0849C26.2815 26.2236 23.199 34.354 26.291 41.287L30.1712 39.5562ZM30.5462 40.3966L30.1712 39.5562L26.291 41.2881L26.6649 42.1275L30.5462 40.3966ZM22.7029 48.2508C23.3429 47.0163 24.2449 45.9366 25.3458 45.0874C26.4467 44.2381 27.7188 43.6399 29.0751 43.3345L28.135 39.1906C26.1768 39.6325 24.3388 40.4969 22.7492 41.7232C21.1596 42.9495 19.8569 44.5082 18.9322 46.2904L22.7029 48.2508ZM26.6745 61.0936C24.4562 59.9065 22.7961 57.8925 22.0525 55.4883C21.3088 53.0842 21.5425 50.4837 22.7029 48.2508L18.9322 46.2904C15.445 53.0024 18.0027 61.2721 24.6701 64.8411L26.6745 61.0936ZM27.0516 61.2955L26.6745 61.0936L24.6701 64.8411L25.0461 65.043L27.0516 61.2955ZM26.0489 65.2937H76.7293V61.0436H26.0489V65.2937Z" fill="#386622"/>
<ellipse cx="65.9896" cy="61.908" rx="14.1246" ry="5.50173" fill="#386622"/>
<ellipse cx="51.3733" cy="58.9984" rx="8.99321" ry="7.67068" fill="#386622"/>
<path fill-rule="evenodd" clip-rule="evenodd" d="M76.7474 63.0718L77.1229 62.8703C82.7565 59.8564 84.9183 52.8731 81.9705 47.2048C81.1893 45.6992 80.0885 44.3825 78.7451 43.3466C77.4017 42.3107 75.8482 41.5808 74.1932 41.2078L74.5676 40.3689C77.1802 34.5129 74.575 27.6474 68.7357 24.9962C66.6214 24.0323 64.2666 23.7246 61.9756 24.1128C61.0265 22.1242 59.5335 20.445 57.6694 19.2695C55.8053 18.0941 53.6464 17.4705 51.4425 17.4709C49.2384 17.4703 47.0792 18.0938 45.2149 19.2692C43.3506 20.4447 41.8574 22.124 40.9083 24.1128C38.6169 23.7243 36.2617 24.0321 34.1472 24.9962C28.3078 27.6474 25.7037 34.5129 28.3152 40.3689L28.6897 41.2067C27.0346 41.5798 25.481 42.3099 24.1376 43.346C22.7942 44.3821 21.6935 45.699 20.9123 47.2048C17.9656 52.8731 20.1274 59.8564 25.7599 62.8703L26.1365 63.0718H76.7474Z" fill="#386622"/>
<path d="M50.6022 56.7923C50.7786 56.1279 51.7128 56.1049 51.9216 56.7601L53.3698 61.303C53.4923 61.6859 53.9496 61.8249 54.2458 61.5618C54.6482 61.2044 55.0664 60.7997 55.4743 60.4027C55.8817 60.0061 56.28 59.6166 56.6413 59.2903C57.0019 58.9648 57.3291 58.6983 57.5964 58.5511C57.7297 58.4777 57.8538 58.4308 57.9616 58.4241C58.0725 58.4174 58.1685 58.4542 58.236 58.5443C58.3078 58.6403 58.3242 58.7478 58.3005 58.8675C58.2772 58.9842 58.2161 59.1165 58.1325 59.2689C57.9623 59.5791 57.6957 59.9818 57.405 60.5667C56.9316 61.5195 56.4033 62.9427 56.1833 65.1429C56.1674 65.3016 56.1735 65.4619 56.1735 65.6214V69.5638C56.1736 70.0906 56.2953 70.6096 56.529 71.0794L56.6364 71.2777L58.0446 73.6898C58.3389 74.1941 58.5506 74.7562 58.9362 75.1946C63.8807 80.8153 70.8949 86.3869 79.6794 91.5716C91.1451 98.3387 105.381 104.302 121.347 108.787L127.514 110.52C143.422 114.99 140.192 138.424 123.669 138.425C120.491 138.425 117.915 141.002 117.915 144.179V147.79C117.915 157.637 109.932 165.619 100.086 165.619H2.4333C-7.41353 165.619 -15.3968 157.637 -15.3968 147.79V144.159C-15.3973 140.993 -17.964 138.425 -21.1302 138.425C-37.631 138.425 -40.8563 115.022 -24.971 110.559L-18.6653 108.787C-2.69854 104.302 11.538 98.3387 23.0036 91.5716C31.8681 86.3396 38.9285 80.7125 43.8796 75.0394C44.2254 74.6431 44.4282 74.1441 44.6931 73.6898L45.5056 72.2972C45.8091 71.777 45.9694 71.1856 45.9694 70.5833V66.3597C45.9694 66.094 45.9505 65.8275 45.905 65.5657C45.5477 63.5132 44.9345 62.0937 44.4196 61.1224C44.267 60.8344 44.122 60.5852 43.9958 60.3704C43.87 60.1563 43.7608 59.9735 43.6794 59.8216C43.5987 59.671 43.5413 59.543 43.5231 59.4378C43.514 59.3846 43.5147 59.3338 43.529 59.2874C43.5438 59.2401 43.572 59.1999 43.613 59.1683C43.6892 59.1097 43.8019 59.1042 43.9265 59.1253C44.0537 59.1469 44.2084 59.1993 44.3815 59.2737C44.7285 59.423 45.1624 59.6672 45.6286 59.9573C46.562 60.5382 47.6356 61.3085 48.4265 61.89C48.7582 62.1333 49.2311 61.9678 49.3366 61.5706L50.6022 56.7923ZM-25.3294 115.168C-25.4934 115.24 -25.654 115.316 -25.8108 115.395C-25.4991 115.239 -25.1729 115.095 -24.8323 114.965L-25.3294 115.168ZM126.883 114.751C127.145 114.838 127.398 114.932 127.644 115.033L127.27 114.886C127.143 114.839 127.014 114.793 126.883 114.75V114.751Z" fill="url(#paint0_linear_106_105)"/>
<path d="M51.4755 72.277C51.4755 72.2817 51.4768 72.2863 51.4794 72.2903C61.9678 88.5333 87.7866 103.775 120.307 112.911L126.473 114.644C137.646 117.783 135.378 134.243 123.772 134.243C118.257 134.243 113.786 138.714 113.786 144.229V147.841C113.786 155.351 107.698 161.439 100.188 161.439H2.537C-4.97278 161.439 -11.0607 155.351 -11.0607 147.841V144.209C-11.0607 138.705 -15.5226 134.243 -21.0266 134.243C-32.6089 134.243 -34.8728 117.816 -23.7221 114.683L-17.4161 112.911C15.1038 103.775 40.9226 88.5333 51.411 72.2903C51.4136 72.2863 51.4149 72.2817 51.4149 72.277V72.2302C51.4149 72.2192 51.4296 72.2148 51.4358 72.224C51.4402 72.2307 51.4502 72.2307 51.4546 72.224C51.4608 72.2148 51.4755 72.2192 51.4755 72.2302V72.277Z"/>
<path d="M51.4755 72.277C51.4755 72.2817 51.4768 72.2863 51.4794 72.2903C61.9678 88.5333 87.7866 103.775 120.307 112.911L126.473 114.644C137.646 117.783 135.378 134.243 123.772 134.243C118.257 134.243 113.786 138.714 113.786 144.229V147.841C113.786 155.351 107.698 161.439 100.188 161.439H2.537C-4.97278 161.439 -11.0607 155.351 -11.0607 147.841V144.209C-11.0607 138.705 -15.5226 134.243 -21.0266 134.243C-32.6089 134.243 -34.8728 117.816 -23.7221 114.683L-17.4161 112.911C15.1038 103.775 40.9226 88.5333 51.411 72.2903C51.4136 72.2863 51.4149 72.2817 51.4149 72.277V72.2302C51.4149 72.2192 51.4296 72.2148 51.4358 72.224C51.4402 72.2307 51.4502 72.2307 51.4546 72.224C51.4608 72.2148 51.4755 72.2192 51.4755 72.2302V72.277Z"/>
</g>
</g>
<defs>
<filter id="filter0_d_106_105" x="0" y="0" width="104" height="104" filterUnits="userSpaceOnUse" color-interpolation-filters="sRGB">
<feFlood flood-opacity="0" result="BackgroundImageFix"/>
<feColorMatrix in="SourceAlpha" type="matrix" values="0 0 0 0 0 0 0 0 0 0 0 0 0 0 0 0 0 0 127 0" result="hardAlpha"/>
<feOffset dx="1" dy="1"/>
<feGaussianBlur stdDeviation="1.5"/>
<feComposite in2="hardAlpha" operator="out"/>
<feColorMatrix type="matrix" values="0 0 0 0 0 0 0 0 0 0 0 0 0 0 0 0 0 0 0.2 0"/>
<feBlend mode="normal" in2="BackgroundImageFix" result="effect1_dropShadow_106_105"/>
<feBlend mode="normal" in="SourceGraphic" in2="effect1_dropShadow_106_105" result="shape"/>
</filter>
<linearGradient id="paint0_linear_106_105" x1="51.2788" y1="56.2811" x2="51.2788" y2="165.619" gradientUnits="userSpaceOnUse">
<stop offset="0.100378" stop-color="#FFA93F"/>
<stop offset="0.121134" stop-color="#FFA93F"/>
<stop offset="0.168269" stop-color="#FFA93F"/>
<stop offset="0.451923" stop-color="#F5AE70" stop-opacity="0"/>
</linearGradient>
<clipPath id="clip0_106_105">
<rect x="2" y="2" width="98" height="98" rx="49" fill="white"/>
</clipPath>
</defs>
</svg>
