<svg width="32" height="30" viewBox="0 0 32 30" fill="none" xmlns="http://www.w3.org/2000/svg">
<mask id="path-1-outside-1_73_524" maskUnits="userSpaceOnUse" x="6" y="3" width="21" height="18" fill="black">
<rect fill="white" x="6" y="3" width="21" height="18"/>
<path d="M12.9523 19H10.3938V7.33984H10.3156L7.00508 9.45898V7.125L10.5109 4.85938H12.9523V19ZM20.8094 19.1953C19.8849 19.1953 19.0451 19.0228 18.2898 18.6777C17.5411 18.3262 16.952 17.8444 16.5223 17.2324C16.0926 16.6204 15.8615 15.9303 15.8289 15.1621H18.2996C18.3387 15.5397 18.4721 15.8783 18.7 16.1777C18.9279 16.4772 19.2273 16.7116 19.5984 16.8809C19.9695 17.0501 20.3732 17.1348 20.8094 17.1348C21.3302 17.1348 21.7957 17.0176 22.2059 16.7832C22.616 16.5488 22.9383 16.2266 23.1727 15.8164C23.407 15.4062 23.5242 14.9408 23.5242 14.4199C23.5242 13.8861 23.4038 13.4108 23.1629 12.9941C22.9285 12.5775 22.5997 12.252 22.1766 12.0176C21.7534 11.7767 21.2716 11.6562 20.7312 11.6562C20.1714 11.6497 19.6961 11.7441 19.3055 11.9395C18.9148 12.1348 18.6089 12.444 18.3875 12.8672H16.034L16.8836 4.85938H25.2332V6.98828H18.9832L18.5535 10.748H18.6707C18.9572 10.429 19.3445 10.1686 19.8328 9.9668C20.3276 9.76497 20.8582 9.66406 21.4246 9.66406C22.2905 9.66406 23.0717 9.86589 23.7684 10.2695C24.465 10.6667 25.0086 11.2233 25.3992 11.9395C25.7964 12.6491 25.9949 13.4531 25.9949 14.3516C25.9949 15.2826 25.7736 16.1159 25.3309 16.8516C24.8882 17.5872 24.2729 18.1634 23.4852 18.5801C22.7039 18.9902 21.812 19.1953 20.8094 19.1953Z"/>
</mask>
<path d="M12.9523 19H10.3938V7.33984H10.3156L7.00508 9.45898V7.125L10.5109 4.85938H12.9523V19ZM20.8094 19.1953C19.8849 19.1953 19.0451 19.0228 18.2898 18.6777C17.5411 18.3262 16.952 17.8444 16.5223 17.2324C16.0926 16.6204 15.8615 15.9303 15.8289 15.1621H18.2996C18.3387 15.5397 18.4721 15.8783 18.7 16.1777C18.9279 16.4772 19.2273 16.7116 19.5984 16.8809C19.9695 17.0501 20.3732 17.1348 20.8094 17.1348C21.3302 17.1348 21.7957 17.0176 22.2059 16.7832C22.616 16.5488 22.9383 16.2266 23.1727 15.8164C23.407 15.4062 23.5242 14.9408 23.5242 14.4199C23.5242 13.8861 23.4038 13.4108 23.1629 12.9941C22.9285 12.5775 22.5997 12.252 22.1766 12.0176C21.7534 11.7767 21.2716 11.6562 20.7312 11.6562C20.1714 11.6497 19.6961 11.7441 19.3055 11.9395C18.9148 12.1348 18.6089 12.444 18.3875 12.8672H16.034L16.8836 4.85938H25.2332V6.98828H18.9832L18.5535 10.748H18.6707C18.9572 10.429 19.3445 10.1686 19.8328 9.9668C20.3276 9.76497 20.8582 9.66406 21.4246 9.66406C22.2905 9.66406 23.0717 9.86589 23.7684 10.2695C24.465 10.6667 25.0086 11.2233 25.3992 11.9395C25.7964 12.6491 25.9949 13.4531 25.9949 14.3516C25.9949 15.2826 25.7736 16.1159 25.3309 16.8516C24.8882 17.5872 24.2729 18.1634 23.4852 18.5801C22.7039 18.9902 21.812 19.1953 20.8094 19.1953Z" fill="#5785CA"/>
<path d="M12.9523 19V20H13.9523V19H12.9523ZM10.3938 19H9.39375V20H10.3938V19ZM10.3938 7.33984H11.3938V6.33984H10.3938V7.33984ZM10.3156 7.33984V6.33984H10.023L9.7765 6.49762L10.3156 7.33984ZM7.00508 9.45898H6.00508V11.2864L7.5442 10.3012L7.00508 9.45898ZM7.00508 7.125L6.46231 6.28512L6.00508 6.5806V7.125H7.00508ZM10.5109 4.85938V3.85938H10.2159L9.96817 4.01949L10.5109 4.85938ZM12.9523 4.85938H13.9523V3.85938H12.9523V4.85938ZM12.9523 19V18H10.3938V19V20H12.9523V19ZM10.3938 19H11.3938V7.33984H10.3938H9.39375V19H10.3938ZM10.3938 7.33984V6.33984H10.3156V7.33984V8.33984H10.3938V7.33984ZM10.3156 7.33984L9.7765 6.49762L6.46595 8.61676L7.00508 9.45898L7.5442 10.3012L10.8547 8.18207L10.3156 7.33984ZM7.00508 9.45898H8.00508V7.125H7.00508H6.00508V9.45898H7.00508ZM7.00508 7.125L7.54784 7.96488L11.0537 5.69926L10.5109 4.85938L9.96817 4.01949L6.46231 6.28512L7.00508 7.125ZM10.5109 4.85938V5.85938H12.9523V4.85938V3.85938H10.5109V4.85938ZM12.9523 4.85938H11.9523V19H12.9523H13.9523V4.85938H12.9523ZM18.2898 18.6777L17.8648 19.583L17.8743 19.5873L18.2898 18.6777ZM15.8289 15.1621V14.1621H14.7856L14.8298 15.2044L15.8289 15.1621ZM18.2996 15.1621L19.2943 15.0592L19.2015 14.1621H18.2996V15.1621ZM23.1629 12.9941L22.2913 13.4844L22.2972 13.4946L23.1629 12.9941ZM22.1766 12.0176L21.6818 12.8867L21.6921 12.8924L22.1766 12.0176ZM20.7312 11.6562L20.7196 12.6562H20.7312V11.6562ZM18.3875 12.8672V13.8672H18.993L19.2736 13.3307L18.3875 12.8672ZM16.034 12.8672L15.0396 12.7617L14.9223 13.8672H16.034V12.8672ZM16.8836 4.85938V3.85938H15.9841L15.8892 4.75387L16.8836 4.85938ZM25.2332 4.85938H26.2332V3.85938H25.2332V4.85938ZM25.2332 6.98828V7.98828H26.2332V6.98828H25.2332ZM18.9832 6.98828V5.98828H18.091L17.9897 6.87473L18.9832 6.98828ZM18.5535 10.748L17.56 10.6345L17.4327 11.748H18.5535V10.748ZM18.6707 10.748V11.748H19.1167L19.4148 11.4162L18.6707 10.748ZM19.8328 9.9668L19.4551 9.04085L19.4508 9.04263L19.8328 9.9668ZM23.7684 10.2695L23.267 11.1348L23.2731 11.1383L23.7684 10.2695ZM25.3992 11.9395L24.5213 12.4183L24.5266 12.4278L25.3992 11.9395ZM23.4852 18.5801L23.95 19.4655L23.9527 19.464L23.4852 18.5801ZM20.8094 19.1953V18.1953C20.0119 18.1953 19.3161 18.0472 18.7054 17.7682L18.2898 18.6777L17.8743 19.5873C18.774 19.9984 19.7579 20.1953 20.8094 20.1953V19.1953ZM18.2898 18.6777L18.7149 17.7726C18.1067 17.487 17.6599 17.1125 17.3407 16.6578L16.5223 17.2324L15.7039 17.8071C16.244 18.5763 16.9756 19.1654 17.8648 19.5829L18.2898 18.6777ZM16.5223 17.2324L17.3407 16.6578C17.0241 16.2069 16.8527 15.7027 16.828 15.1198L15.8289 15.1621L14.8298 15.2044C14.8702 16.158 15.161 17.034 15.7039 17.8071L16.5223 17.2324ZM15.8289 15.1621V16.1621H18.2996V15.1621V14.1621H15.8289V15.1621ZM18.2996 15.1621L17.3049 15.265C17.3627 15.8235 17.5641 16.3363 17.9042 16.7833L18.7 16.1777L19.4958 15.5722C19.3802 15.4202 19.3146 15.2559 19.2943 15.0592L18.2996 15.1621ZM18.7 16.1777L17.9042 16.7833C18.2402 17.2249 18.6751 17.5588 19.1834 17.7907L19.5984 16.8809L20.0134 15.971C19.7795 15.8643 19.6155 15.7296 19.4958 15.5722L18.7 16.1777ZM19.5984 16.8809L19.1834 17.7907C19.6937 18.0234 20.2401 18.1348 20.8094 18.1348V17.1348V16.1348C20.5063 16.1348 20.2454 16.0768 20.0134 15.971L19.5984 16.8809ZM20.8094 17.1348V18.1348C21.4859 18.1348 22.1256 17.9808 22.702 17.6514L22.2059 16.7832L21.7097 15.915C21.4658 16.0543 21.1745 16.1348 20.8094 16.1348V17.1348ZM22.2059 16.7832L22.702 17.6514C23.2672 17.3285 23.7179 16.8777 24.0409 16.3125L23.1727 15.8164L22.3044 15.3203C22.1586 15.5754 21.9648 15.7692 21.7097 15.915L22.2059 16.7832ZM23.1727 15.8164L24.0409 16.3125C24.3703 15.7362 24.5242 15.0965 24.5242 14.4199H23.5242H22.5242C22.5242 14.785 22.4438 15.0763 22.3044 15.3203L23.1727 15.8164ZM23.5242 14.4199H24.5242C24.5242 13.73 24.3668 13.0786 24.0286 12.4936L23.1629 12.9941L22.2972 13.4946C22.4407 13.743 22.5242 14.0421 22.5242 14.4199H23.5242ZM23.1629 12.9941L24.0345 12.5039C23.7081 11.9236 23.2444 11.4659 22.6611 11.1428L22.1766 12.0176L21.6921 12.8924C21.9551 13.0381 22.149 13.2313 22.2913 13.4844L23.1629 12.9941ZM22.1766 12.0176L22.6713 11.1485C22.0813 10.8127 21.4256 10.6562 20.7312 10.6562V11.6562V12.6562C21.1176 12.6562 21.4255 12.7407 21.6819 12.8866L22.1766 12.0176ZM20.7312 11.6562L20.7429 10.6563C20.0674 10.6485 19.4257 10.7613 18.8583 11.045L19.3055 11.9395L19.7527 12.8339C19.9665 12.727 20.2753 12.651 20.7196 12.6562L20.7312 11.6562ZM19.3055 11.9395L18.8583 11.045C18.262 11.3432 17.8106 11.8127 17.5014 12.4037L18.3875 12.8672L19.2736 13.3307C19.4071 13.0754 19.5677 12.9264 19.7527 12.8339L19.3055 11.9395ZM18.3875 12.8672V11.8672H16.034V12.8672V13.8672H18.3875V12.8672ZM16.034 12.8672L17.0284 12.9727L17.878 4.96488L16.8836 4.85938L15.8892 4.75387L15.0396 12.7617L16.034 12.8672ZM16.8836 4.85938V5.85938H25.2332V4.85938V3.85938H16.8836V4.85938ZM25.2332 4.85938H24.2332V6.98828H25.2332H26.2332V4.85938H25.2332ZM25.2332 6.98828V5.98828H18.9832V6.98828V7.98828H25.2332V6.98828ZM18.9832 6.98828L17.9897 6.87473L17.56 10.6345L18.5535 10.748L19.547 10.8616L19.9767 7.10183L18.9832 6.98828ZM18.5535 10.748V11.748H18.6707V10.748V9.74805H18.5535V10.748ZM18.6707 10.748L19.4148 11.4162C19.5807 11.2313 19.8334 11.0486 20.2148 10.891L19.8328 9.9668L19.4508 9.04263C18.8557 9.28863 18.3336 9.62673 17.9267 10.0799L18.6707 10.748ZM19.8328 9.9668L20.2105 10.8927C20.5783 10.7427 20.9798 10.6641 21.4246 10.6641V9.66406V8.66406C20.7366 8.66406 20.0769 8.78724 19.4551 9.04086L19.8328 9.9668ZM21.4246 9.66406V10.6641C22.1282 10.6641 22.7342 10.826 23.267 11.1348L23.7684 10.2695L24.2697 9.40429C23.4093 8.90573 22.4528 8.66406 21.4246 8.66406V9.66406ZM23.7684 10.2695L23.2731 11.1383C23.8055 11.4418 24.218 11.8621 24.5213 12.4183L25.3992 11.9395L26.2771 11.4606C25.7992 10.5845 25.1244 9.89152 24.2636 9.40079L23.7684 10.2695ZM25.3992 11.9395L24.5266 12.4278C24.8317 12.973 24.9949 13.6058 24.9949 14.3516H25.9949H26.9949C26.9949 13.3005 26.761 12.3252 26.2719 11.4511L25.3992 11.9395ZM25.9949 14.3516H24.9949C24.9949 15.1167 24.8152 15.769 24.474 16.336L25.3309 16.8516L26.1877 17.3672C26.7319 16.4628 26.9949 15.4484 26.9949 14.3516H25.9949ZM25.3309 16.8516L24.474 16.336C24.1288 16.9096 23.6509 17.3611 23.0176 17.6961L23.4852 18.5801L23.9527 19.464C24.8949 18.9657 25.6475 18.2648 26.1877 17.3672L25.3309 16.8516ZM23.4852 18.5801L23.0203 17.6947C22.401 18.0198 21.6723 18.1953 20.8094 18.1953V19.1953V20.1953C21.9516 20.1953 23.0069 19.9606 23.95 19.4655L23.4852 18.5801Z" fill="#FFFBF0" mask="url(#path-1-outside-1_73_524)"/>
</svg>
